<svg width="25" height="16" viewBox="0 0 25 16" fill="none" xmlns="http://www.w3.org/2000/svg">
<path d="M16.984 7.976L23.135 2.632V13.259L16.984 7.976ZM9.058 8.881L11.218 10.756C11.557 11.044 11.999 11.218 12.482 11.218H12.499H12.512C12.996 11.218 13.438 11.043 13.781 10.753L13.778 10.755L15.938 8.88L22.504 14.519H2.495L9.058 8.881ZM2.486 1.365H22.516L12.895 9.721C12.7868 9.80656 12.6529 9.85308 12.515 9.853H12.501H12.488C12.3496 9.85318 12.2152 9.80627 12.107 9.72L12.108 9.721L2.486 1.365ZM1.865 2.631L8.015 7.975L1.865 13.255V2.631ZM23.465 0.19C23.225 0.0700001 22.943 0 22.644 0H2.359C2.06916 6.9235e-05 1.78331 0.0675106 1.524 0.197L1.535 0.192C1.22457 0.345111 0.963148 0.581979 0.780254 0.875845C0.597361 1.16971 0.500287 1.50887 0.5 1.855V14.027C0.500529 14.5196 0.696452 14.9919 1.04478 15.3402C1.39311 15.6885 1.86539 15.8845 2.358 15.885H22.641C23.1336 15.8845 23.6059 15.6885 23.9542 15.3402C24.3025 14.9919 24.4985 14.5196 24.499 14.027V1.855C24.499 1.128 24.08 0.498 23.47 0.195L23.459 0.19H23.465Z" fill="#5F6368"/>
</svg>
